<svg width="12" height="11" viewBox="0 0 12 11" fill="none" xmlns="http://www.w3.org/2000/svg">
<path d="M0.563197 1.49272C1.85592 -0.445925 4.63292 -0.478907 6 1.29274C7.36709 -0.478907 10.1441 -0.445924 11.4368 1.49272C12.3235 2.82282 12.1479 4.59446 11.0176 5.72483L6.75294 9.98946C6.69064 10.0518 6.60127 10.1429 6.512 10.2111C6.40814 10.2904 6.23554 10.3942 6 10.3942C5.76446 10.3942 5.59187 10.2904 5.488 10.2111C5.39873 10.1429 5.30936 10.0518 5.24706 9.98946L0.982432 5.72483C-0.147935 4.59446 -0.323535 2.82282 0.563197 1.49272ZM10.4104 2.17699C9.53624 0.866211 7.58795 0.93337 6.80594 2.30108L6.63126 2.60587C6.35196 3.09465 5.64805 3.09466 5.36874 2.60587L5.19406 2.30108C4.41205 0.93337 2.46376 0.866211 1.5896 2.17699C1.02905 3.01781 1.14007 4.13807 1.85463 4.85263L6 8.998L10.1454 4.85263C10.8599 4.13807 10.9709 3.01781 10.4104 2.17699Z" fill="#B23495"/>
</svg>
